<?xml version="1.0" standalone="no"?>
<!DOCTYPE svg PUBLIC "-//W3C//DTD SVG 20010904//EN"
 "http://www.w3.org/TR/2001/REC-SVG-20010904/DTD/svg10.dtd">
<svg version="1.0" xmlns="http://www.w3.org/2000/svg"
 width="960.000000pt" height="960.000000pt" viewBox="0 0 960.000000 960.000000"
 preserveAspectRatio="xMidYMid meet">
<metadata>
Created by potrace 1.16, written by Peter Selinger 2001-2019
</metadata>
<g transform="translate(0.000000,960.000000) scale(0.100000,-0.100000)"
fill="#000000" stroke="none">
<path d="M0 4800 l0 -4800 4800 0 4800 0 0 4800 0 4800 -4800 0 -4800 0 0
-4800z m4402 3399 c74 -16 123 -43 186 -103 65 -61 97 -121 114 -212 l13 -67
107 -52 c293 -146 602 -405 849 -712 205 -255 392 -603 497 -923 61 -186 69
-216 92 -325 48 -239 60 -289 67 -296 8 -8 102 -30 383 -88 284 -60 537 -123
759 -190 20 -6 37 2 88 40 74 57 141 79 235 79 168 0 313 -106 368 -270 59
-176 -26 -375 -201 -467 -50 -26 -63 -28 -164 -28 -99 0 -116 3 -168 27 -69
33 -154 115 -186 181 -13 26 -30 51 -39 56 -10 5 -113 41 -230 80 -210 70
-437 127 -887 221 -327 69 -310 57 -331 237 -23 193 -44 298 -100 491 -61 208
-95 293 -204 509 -115 227 -203 350 -410 573 -144 156 -349 319 -573 454 l-98
60 -90 -19 c-49 -10 -127 -18 -173 -18 -75 -1 -91 3 -149 31 -84 42 -167 129
-197 209 -17 43 -23 80 -23 143 0 109 26 179 94 254 102 112 230 155 371 125z
m-2072 -579 c190 -81 497 -208 535 -222 17 -6 77 -31 135 -56 118 -52 170 -57
313 -34 198 31 394 11 617 -64 193 -65 355 -146 520 -260 141 -98 456 -405
541 -528 30 -43 61 -88 69 -100 8 -11 27 -36 42 -54 33 -38 114 -197 159 -310
88 -221 147 -426 164 -572 4 -30 15 -95 26 -145 37 -177 50 -262 59 -390 7
-110 11 -132 28 -145 11 -9 73 -26 138 -39 66 -12 263 -58 439 -101 298 -73
597 -143 690 -161 96 -18 371 -79 420 -94 72 -21 118 -19 139 4 27 30 119 71
186 83 200 38 403 -113 440 -325 22 -123 -20 -244 -117 -339 -130 -127 -335
-143 -487 -39 -60 42 -113 108 -141 178 l-24 58 -103 43 c-57 23 -125 49 -153
57 -98 29 -462 117 -605 145 -127 26 -238 49 -375 81 -89 21 -305 58 -375 64
-99 9 -102 6 -105 -132 -2 -60 -6 -237 -10 -395 -6 -219 -11 -290 -21 -299 -9
-8 -94 -8 -308 1 -251 9 -678 6 -697 -5 -3 -2 -49 -11 -103 -20 -230 -37 -449
-118 -613 -228 -118 -79 -188 -144 -238 -223 -45 -69 -95 -176 -95 -201 0 -10
-6 -36 -14 -58 -7 -22 -19 -84 -26 -138 l-13 -97 45 -48 c24 -26 57 -74 73
-107 27 -54 30 -70 30 -155 0 -85 -4 -102 -31 -160 -39 -83 -106 -150 -192
-192 -61 -30 -74 -33 -162 -33 -82 0 -103 4 -153 27 -77 36 -160 116 -197 191
-27 55 -30 69 -30 158 0 76 5 110 22 155 28 73 111 164 182 199 l53 26 7 80
c16 193 92 400 205 559 114 160 359 354 527 416 38 14 125 47 194 73 150 57
312 104 436 126 82 14 195 18 752 25 27 0 42 70 51 232 12 202 7 229 -39 245
-118 41 -1021 -13 -1240 -74 -333 -92 -550 -178 -701 -279 -144 -95 -356 -322
-496 -529 -132 -195 -245 -553 -259 -822 l-6 -108 34 -45 c93 -121 124 -203
115 -309 -10 -140 -85 -255 -209 -322 -61 -33 -66 -34 -178 -34 -106 0 -119 2
-168 28 -276 145 -295 511 -37 678 l63 40 1 80 c3 155 50 412 107 579 114 333
313 653 525 844 97 87 303 239 401 294 70 41 298 144 400 182 141 53 538 140
728 160 310 31 350 33 627 22 165 -6 284 -7 294 -2 26 15 34 169 15 305 -13
98 -67 323 -139 585 -21 76 -117 282 -217 465 -45 84 -191 298 -220 325 -3 3
-30 33 -60 68 -126 146 -300 269 -565 398 -219 106 -301 134 -438 146 -134 11
-227 -4 -354 -58 -122 -52 -147 -50 -261 15 -51 30 -95 57 -98 62 -3 5 -16 9
-30 9 -34 0 -32 -35 12 -164 l36 -107 -43 -47 c-24 -26 -52 -56 -62 -67 -10
-11 -55 -71 -100 -134 -45 -62 -94 -130 -108 -150 -24 -32 -56 -100 -172 -367
-19 -45 -48 -128 -62 -185 -16 -60 -48 -145 -76 -200 -51 -103 -232 -379 -284
-435 -6 -6 -19 -30 -29 -53 -18 -39 -18 -42 -2 -60 16 -18 127 -76 210 -109
38 -15 40 -15 60 10 23 27 80 99 178 222 100 127 209 197 369 237 75 19 101
21 244 15 176 -7 261 4 330 45 53 32 58 49 33 106 -18 39 -23 67 -23 143 0 86
3 101 32 162 40 86 106 151 191 191 61 28 76 32 162 31 82 0 103 -3 153 -26
74 -35 156 -113 192 -184 37 -72 49 -193 28 -274 -40 -155 -190 -276 -346
-281 l-67 -2 -37 -49 c-20 -26 -40 -48 -43 -48 -4 0 -15 -9 -27 -19 -24 -23
-71 -47 -127 -67 -68 -25 -246 -54 -331 -54 -107 -1 -207 -15 -280 -42 -51
-18 -74 -36 -154 -117 -97 -100 -150 -170 -195 -259 -72 -142 -157 -179 -298
-131 -172 59 -592 261 -658 317 -90 75 -76 210 34 346 27 32 90 119 142 192
51 74 122 171 157 217 83 108 134 188 158 251 11 28 42 92 68 141 27 50 70
144 95 210 99 254 240 493 328 558 15 11 28 25 28 30 0 5 -20 55 -44 111 -25
55 -84 193 -131 306 -48 113 -102 237 -120 276 -19 39 -37 84 -41 99 -9 35
-16 36 176 -45z m2145 -4614 c57 -24 102 -64 124 -111 12 -25 21 -49 21 -53 0
-8 -86 -32 -114 -32 -7 0 -20 15 -28 34 -22 44 -92 80 -141 71 -53 -10 -94
-40 -119 -87 -18 -36 -22 -59 -22 -138 -1 -122 23 -178 88 -209 52 -26 79 -26
132 -2 33 15 46 29 64 69 l23 50 51 -15 c28 -8 55 -18 60 -23 14 -13 -12 -74
-50 -119 -99 -115 -284 -122 -402 -16 -67 60 -94 125 -100 236 -5 107 15 184
66 252 35 46 94 89 137 100 45 11 177 6 210 -7z m1915 -321 l0 -325 -60 0 -60
0 0 325 0 325 60 0 60 0 0 -325z m1357 17 c67 -169 125 -315 129 -324 5 -16
-1 -18 -64 -18 l-70 0 -27 75 -28 75 -133 0 -132 0 -21 -62 c-31 -91 -29 -89
-103 -86 l-65 3 42 110 c23 61 79 206 125 323 l83 212 71 0 71 0 122 -308z
m-2715 128 c20 -6 48 -24 62 -41 25 -30 26 -34 26 -187 1 -111 5 -169 15 -197
8 -22 15 -41 15 -42 0 -2 -27 -3 -61 -3 -52 0 -62 3 -66 20 -7 26 -12 25 -64
-5 -57 -32 -137 -34 -186 -4 -47 29 -66 71 -60 133 7 81 55 112 230 146 54 11
57 13 57 40 0 36 -32 60 -80 60 -39 0 -80 -23 -80 -46 0 -17 -5 -17 -68 -3
-41 8 -49 14 -45 28 9 33 64 91 96 100 44 13 164 13 209 1z m1035 -9 c23 -11
47 -30 54 -43 9 -15 16 -84 20 -198 3 -96 10 -185 14 -197 7 -22 5 -23 -53
-23 -52 0 -62 3 -67 20 -8 25 -11 25 -60 -5 -29 -18 -54 -25 -93 -25 -98 0
-152 48 -152 136 0 47 4 59 33 90 28 31 45 39 142 62 92 23 110 30 113 47 5
34 -21 57 -71 62 -42 5 -49 3 -78 -26 -31 -32 -33 -32 -80 -21 -27 7 -49 17
-49 22 0 26 44 78 83 97 57 28 183 29 244 2z m771 -1 c86 -39 132 -114 132
-218 0 -80 -16 -125 -62 -178 -104 -118 -322 -90 -396 51 -23 44 -28 171 -8
217 23 53 74 108 121 129 55 25 157 25 213 -1z m1479 -6 c68 -51 97 -130 91
-245 -4 -60 -10 -86 -32 -122 -55 -96 -172 -127 -253 -68 -23 16 -44 27 -47
24 -3 -4 -6 -55 -6 -115 l0 -108 -60 0 -60 0 0 325 0 325 61 0 c60 0 61 0 57
-25 -3 -14 -1 -28 3 -31 5 -3 9 -1 9 5 0 5 19 22 43 36 36 22 51 25 104 23 43
-3 71 -10 90 -24z m567 -7 c50 -39 78 -98 84 -178 6 -92 -12 -163 -56 -211
-47 -52 -80 -68 -140 -68 -39 0 -58 6 -90 30 l-42 30 0 -115 0 -115 -65 0 -65
0 0 325 0 325 60 0 60 0 0 -31 c0 -31 0 -31 18 -10 32 38 73 52 138 49 49 -3
69 -10 98 -31z m-3506 -136 c31 -85 57 -151 59 -145 2 5 28 74 57 154 l53 145
65 3 66 3 -93 -233 -93 -233 -57 0 -57 0 -77 190 c-43 105 -85 209 -94 233
l-17 43 66 -3 67 -3 55 -154z"/>
<path d="M7507 2742 c-20 -59 -37 -110 -37 -114 0 -5 39 -8 86 -8 78 0 85 2
80 17 -4 10 -23 62 -43 115 -20 54 -39 98 -42 98 -3 0 -23 -48 -44 -108z"/>
<path d="M4945 2573 c-87 -25 -105 -35 -111 -59 -4 -15 0 -34 10 -49 13 -20
25 -25 59 -25 63 1 89 28 95 95 2 30 3 55 1 54 -2 -1 -26 -8 -54 -16z"/>
<path d="M5927 2565 c-60 -17 -77 -31 -77 -65 0 -55 71 -81 125 -46 29 19 45
53 45 97 0 34 -14 36 -93 14z"/>
<path d="M6675 2728 c-50 -29 -73 -98 -56 -174 15 -64 46 -95 103 -101 34 -4
49 0 72 18 100 79 56 270 -63 269 -20 0 -45 -6 -56 -12z"/>
<path d="M8117 2720 c-36 -29 -53 -104 -37 -170 21 -88 102 -128 163 -80 53
42 57 192 6 246 -29 31 -95 33 -132 4z"/>
<path d="M8675 2717 c-53 -45 -53 -182 0 -237 35 -37 89 -41 128 -10 56 44 56
206 0 250 -35 28 -94 26 -128 -3z"/>
</g>
</svg>
